<svg data-name="hammer-wrench-glyph" xmlns="http://www.w3.org/2000/svg" viewBox="0 0 512 512"><path d="M129.77 443.48a86.37 86.37 0 0 1 24-46.44l230.1-231.11a86.4 86.4 0 0 1 61.7-25.51c20.57-.3 40.4-9.4 53.28-26.58 16.77-22.39 17.1-52.27 3.26-76l-27.55 48.34c-14.49 11.65-36.72 10.5-50.19-2.93a37 37 0 0 1-10.21-33.3L442.55.41c-22.83-1.7-45.55 7.44-59.76 26.42-11.72 15.6-15.39 34.83-11.87 53.12a86.24 86.24 0 0 1-15.9 39L106.59 368.39a85.79 85.79 0 0 1-36.4 15.67c-22.06-2.79-44.4 5.49-58.14 23.79-15.37 20.48-15.66 47.78-3 69.54l25.19-44.22c13.25-10.66 33.58-9.62 45.93 2.66a33.83 33.83 0 0 1 9.33 30.44l-26 45.33c20.9 1.54 41.66-6.81 54.68-24.19a60.77 60.77 0 0 0 11.59-43.93z" fill="#434040"/><path d="M492.45 472.1L465.13 501a14.1 14.1 0 0 1-20 .38L120.77 184.94c-.13-.13-.24-.26-.36-.4-4.16-2.42-22.16-12.48-32.91-12.48-12.25 0-44.93 12.13-58.48 111.41l-3.15-.37S-21.9 150 89.65 66.82c0 0 41.93 6.26 57.62-35.93l25.67-28.14 44.42 42-25.29 27.47s-18.9-9.59-41.18 17.17c-19.55 23.49.1 49.42 5.22 55.44a12 12 0 0 1 1.07.88l334.56 306.37a14 14 0 0 1 .71 20.02z" fill="#434040"/></svg>