<svg version="1" xmlns="http://www.w3.org/2000/svg" width="346.667" height="346.667" viewBox="0 0 260.000000 260.000000"><path d="M52.8 15.4c-3.7 1.3-8.3 3.5-10.2 4.9-1.9 1.5-3.8 2.7-4.1 2.7-1.1 0-14.6 14.3-15.6 16.5-.5 1.1-2.2 4-3.7 6.5-5.7 9.1-6.2 28.3-1 38 8.7 16.5 17.9 26.4 30.1 32.3 9.8 4.8 26.4 7.8 43.7 7.8 16.7.1 30.6-1.6 31.4-3.8 1.5-3.7 2.8-26.9 2.2-38-.7-14.4-5.2-33.7-9.1-39.4-1.4-1.9-2.5-3.9-2.5-4.4 0-1-15.1-15.5-16.2-15.5-.4 0-2.8-1.4-5.3-3.1-2.6-1.7-6.2-3.5-8.1-4-1.9-.5-5.1-1.3-7.1-1.9-6.7-1.7-17.2-1.1-24.5 1.4zM74 45.1c0 3.7-.4 4.9-1.5 4.9S71 48.8 71 45.2c0-2.7.3-5.2.6-5.5 1.5-1.4 2.4.7 2.4 5.4zM51.3 52c3.5 3.3 3.9 4 2.1 4-2.3 0-9.8-6.2-8.8-7.3 1.3-1.3 2.4-.7 6.7 3.3zM96 53.2c-2.8 2.5-4.7 3.5-5.3 2.9-1-1 3.5-6.3 6.3-7.3 3.5-1.2 3.1.8-1 4.4zm-15.5 1.3c4.2 1.3 6 2.5 8.9 6.2 4.4 5.7 5.3 9.7 3.1 14.9C88.8 84.5 83.1 88 72.2 88c-6.9 0-8.3-.3-12.4-2.9-4.6-2.9-8.8-9.5-8.8-13.8 0-6.8 6-14.6 12.9-16.8 6.1-1.8 10.2-1.8 16.6 0zM48 70.5c0 1.2-1.3 1.5-5.9 1.5-5.6 0-7.9-.9-6.4-2.4.3-.3 3.3-.6 6.5-.6 4.5 0 5.8.3 5.8 1.5zm61.5 0c0 .5-2.8 1.1-6.2 1.3-5.2.2-6.3 0-6.3-1.3s1.1-1.5 6.3-1.3c3.4.2 6.2.7 6.2 1.3zM55 87.4c0 .7-1.5 2.5-3.4 4-5.1 3.9-7.5 3.3-3.8-.9 1.9-2.1 5.1-4.3 6.5-4.4.4-.1.7.5.7 1.3zm41.1 1.7c4.2 3.3 4.9 4.9 2.2 4.9-1.6-.1-9.3-6.3-9.3-7.5 0-1.5 3.7-.1 7.1 2.6zM73.8 97c-.4 6.7-2.2 6.9-2.6.2-.2-4.2 0-5.2 1.3-5.2s1.5 1 1.3 5z"/><path d="M65 56.8c-4.1 1.8-9.1 7-10 10.2-1 3.7 0 10.1 1.9 12.4.6.7 3.6 2.5 6.6 4.1 4.7 2.3 6.4 2.7 10.5 2.2 15.9-1.9 21.5-18.1 9.1-26.5-4-2.8-5.5-3.2-10.6-3.1-3.3 0-6.7.3-7.5.7zM178.5 15.7c-3.2.7-6.5 1.9-7.3 2.6-1.5 1.2-4.8 3.2-7.2 4.3-.8.4-3.2 2.2-5.3 4.1-2 1.8-4.2 3.3-4.7 3.3-.6 0-1 .6-1 1.3 0 .7-1.6 2.6-3.5 4.1-1.9 1.6-3.5 3.4-3.5 4.1 0 .7-.7 1.8-1.5 2.5-2.7 2.3-7.7 15.4-10 26.5-1.8 8.4-2 38.8-.4 48l1.1 6.3 7.1 1.1c12.3 1.9 27.7 2.4 38.1 1.2 12.3-1.4 29.1-5.6 32.7-8.2 1.5-1 3.2-1.9 3.7-1.9 1.4 0 13.2-11.5 16.5-16 1.4-1.9 4.4-7.2 6.6-11.7l4.1-8.1v-24l-4.2-8.1c-7.5-14.4-23.7-28.8-35.8-31.7-7-1.7-17.8-1.6-25.5.3zm-6.8 27.7C172.8 45.3 188 57 189.4 57c.6 0 3.1-1.8 5.5-4s4.7-4 5.1-4c.4 0 2.2-1.6 4.1-3.5 3.6-3.7 5.9-4.5 5.9-2 0 .8-1.9 2.7-4.2 4.4-2.4 1.6-5.2 3.8-6.3 4.8-1.1 1.1-3.3 2.8-4.8 3.7-1.5 1-2.7 2.3-2.7 2.8 0 1.2 8.1 8.7 9.5 8.8 1.5.1 8.9 7.9 8.2 8.6-.7.8-5.4-2.4-12.8-8.8-3.1-2.6-5.9-4.8-6.3-4.8-.3 0-.6 10.3-.6 23 0 14.7-.4 23-1 23s-1-8.1-1-22.4c0-12.4-.4-22.7-.9-23-.4-.3-1.9.6-3.1 1.9-1.3 1.4-2.8 2.5-3.4 2.5-.6 0-1.6.8-2.2 1.8-1.5 2.4-9.3 7.7-10.1 6.8-.9-.8 6.7-8.6 8.4-8.6.8 0 1.6-.7 1.9-1.5.3-.8 2.1-2.4 4-3.6 4-2.4 4.2-3.3 1.2-5.7-1.1-.9-3.8-3.2-5.8-5-2.1-1.7-4-3.2-4.3-3.2-1.1 0-5.7-4.7-5.7-5.9 0-1.6 2.7-1.4 3.7.3zM66.8 135c-12.4 2.6-23.4 6.7-25.8 9.5-.7.8-1.6 1.5-2.1 1.5-1.6 0-15.9 15.4-15.9 17.1 0 .4-1.4 3.2-3.1 6.1-3.3 5.6-5.9 15.4-5.9 22.5 0 5.4 2.8 17.4 4.5 19.3.7.8 2.1 3.1 3 5 1.9 3.8 11.3 15 12.5 15 .5 0 2.1 1.2 3.8 2.7 1.6 1.6 6.3 4.5 10.5 6.5 7.3 3.7 7.8 3.8 18.8 3.8 10.9 0 11.5-.1 18.8-3.7 12.8-6.2 22.7-14.8 29.4-25.5 5.2-8.3 9.6-25.6 10.4-41.3.6-13.4-1.1-35.3-3-37.2-3.7-3.6-41.1-4.5-55.9-1.3zm7.3 24.3c8.2 5.1 19.9 15.9 19.9 18.3 0 .7.3 1.4.8 1.6 1.6.7 4.2 8.1 4.2 11.9 0 4.3-2.9 13.9-4.2 13.9-.5 0-.8.7-.8 1.5 0 2.3-7.7 7.4-13.9 9.1-11.4 3.4-26 0-32.7-7.4-4.6-5.1-5.5-7.8-5.5-16.8 0-7.9.2-8.9 2.8-12.1 1.5-1.9 3.2-4.2 3.7-5.1.5-1 3.1-3.5 5.9-5.7 2.7-2.2 5.8-4.8 6.9-5.8 1.8-1.7 7.7-5.5 8.8-5.6.3-.1 2.1.9 4.1 2.2z"/><path d="M61.8 166c-16.2 12.6-20.9 22.6-15.9 34.2 2.9 6.8 7 10.1 15.1 12.2 11.5 3 22.9.7 29.4-6 2.8-2.9 3.6-4.6 4.2-9.1 1.1-8.7-.1-14.9-3.5-19.1-5.3-6.4-11.3-12.2-12.6-12.2-.4 0-2.3-1.4-4.2-3-1.8-1.7-3.7-3-4.1-2.9-.4 0-4.2 2.7-8.4 5.9zM144 135.2c-4.1.5-7.8 1.2-8.2 1.6-3.3 3.3-3.9 41.5-.8 55.2 2.7 12.2 8.1 26 10.2 26 .4 0 .8.6.8 1.3 0 1.1 4.6 6 11.7 12.6 2.8 2.6 13.7 9.2 18.3 11.1 4.8 2.1 26.1 2.1 31 0 12.3-5 25.3-17.3 32.5-30.4l4.5-8.3v-23.6l-4.5-9.1c-9.1-18.2-20.5-28.5-36.5-32.9-16.6-4.6-39.6-5.9-59-3.5zm49.4 17.3c2.4 1.4 5.1 3.4 6.1 4.5s2.2 2 2.7 2c1 0 8.8 8 8.8 9 0 .3.9 1.6 2.1 2.8 9.2 10 4.9 29.3-8 35.6-3.1 1.5-7.5 3-9.8 3.3l-4.2.6-.3 9.6c-.2 7.7-.6 9.6-1.8 9.6-1.2 0-1.6-1.9-1.8-9.6l-.3-9.6-3.9-.6c-5.7-.7-14.7-5.3-16.7-8.5-1-1.5-2.1-2.9-2.5-3.2-1.5-1.1-3.8-9.4-3.8-13.7 0-4.4 1.8-10 4.2-12.8 4.5-5.4 11.6-12.5 12.6-12.5.6 0 1.5-.7 2-1.6.7-1.3 8.6-7.1 10-7.3.2-.1 2.3 1 4.6 2.4z"/><path d="M185 156c-1.9 1.6-3.8 3-4.2 3-1.6 0-14.2 14.2-15.9 18-5.3 11.8 2.1 25.9 15 28.7 3.1.7 5.9 1.2 6.4 1.3.4 0 .7-1.9.7-4.3 0-3.9-.3-4.4-4-6.7-2.2-1.4-4-2.8-4-3.2 0-.5-.6-.8-1.2-.8-2-.1-5.8-3.6-5.8-5.4 0-2.4 1.2-2 5.7 1.9 2.3 1.9 4.6 3.5 5.2 3.5.7 0 1.4.7 1.7 1.5 1.2 3.2 2.4 1.3 2.4-3.8 0-5.7-1-7.1-7.4-11.1-1.8-1.2-2.5-2.1-1.8-2.8.6-.6 2.1-.2 4.3 1.1 1.9 1.2 3.7 2.1 4.1 2.1.4 0 .8-2.4 1-5.3.2-3.8.7-5.2 1.8-5.2s1.6 1.4 1.8 5.2c.2 2.9.7 5.3 1.3 5.3.5 0 2.3-1 3.9-2.2 2.2-1.6 3.3-1.9 4.1-1.1.8.8 0 1.9-3.2 3.9-5.6 3.5-5.9 3.9-5.9 10.3 0 5.2.1 5.3 1.8 3.8 1-1 2.4-1.7 3-1.7.6 0 1.5-.6 1.9-1.3.8-1.4 6.7-5.7 7.7-5.7.3 0 .6.6.6 1.3 0 1.5-2.7 4.3-5.9 6.1-8 4.7-9.1 6-9.1 10.5 0 4.2.1 4.3 2.8 3.7 1.5-.3 4.3-.9 6.2-1.3 7.3-1.3 13.3-8.9 14.6-18.5 1.1-8.2-4.8-18-15.9-26.5-3.4-2.6-6.8-5.3-7.5-6-1.9-1.8-2.2-1.7-6.2 1.7z"/></svg>